<?xml version="1.0" encoding="utf-8"?>
<!-- Generator: Adobe Illustrator 26.0.1, SVG Export Plug-In . SVG Version: 6.00 Build 0)  -->
<svg version="1.1" id="Layer_1" xmlns="http://www.w3.org/2000/svg" xmlns:xlink="http://www.w3.org/1999/xlink" x="0px" y="0px"
	 viewBox="0 0 1319.2 756" style="enable-background:new 0 0 1319.2 756;" xml:space="preserve">
<style type="text/css">
	.st0{fill:#FFFFFF;}
</style>
<g>
	<path class="st0" d="M157.7,323.5c4.6,4.9,10.4,1.4,15.9,4.1c3.2,1.2,5.5-0.2,8.1-1.2c0.6-0.2,1.3-0.2,1.9-0.1
		c6,1.4,13.2,1.3,18-2.1c2.9-3.2-1.6-6.9-1.5-10.4c0-0.8-0.2-1.6-0.7-2.2c-3.7-4.4-10-2-14.7-5.1c-0.3-0.2-0.7-0.4-1.1-0.5
		c-3.5-0.9-7.1-3.4-11.5-3.6c-0.4,0-0.7,0.1-1.1,0.2c-3.9,1.2-13.3,7.1-14.7,7c0,0,0,0-0.1,0c-1.9-0.2-3.7,1.4-3.6,3.3
		c0,1.1,0.2,2.2,0.4,2.9C153.8,318.1,155.2,321.7,157.7,323.5z"/>
	<path class="st0" d="M211.1,362.8c2.1,5.4,8.5,5.6,11.9,10.1c0.2,0.3,0.4,0.5,0.7,0.7c3,2.1,5.5,5.8,9.6,7.6c0.3,0.1,0.6,0.2,1,0.2
		c3.9,0.4,8.9,2.7,11.8-0.1c1-0.9,2.4-1.2,3.6-0.6c0,0,0,0,0.1,0c1.7,0.9,3.9,0,4.4-1.9c0.2-0.9,0.4-1.7,0.4-2.4
		c0.1-2.3-0.1-6-1.9-8.6c-2.8-6-9-5.1-13.3-9.6c-2.6-2.2-5.1-1.8-7.8-2c-0.6,0-1.1-0.2-1.6-0.6c-5.1-3.6-11.6-6.2-17.1-4.9
		c-3.6,1.8-0.6,6.7-1.7,9.8C210.9,361.3,210.9,362.1,211.1,362.8z"/>
	<path class="st0" d="M464.7,387.1c-2.6,2.6-3.1,8.8-5.2,13.3c3.4-3.1,9.4-4.2,14-3.6C468.4,391,464.7,386.4,464.7,387.1z"/>
	<path class="st0" d="M622.7,538.1c1.3-0.1,1.6-0.9,1.4-1.9c0.3-1.6-1.6-4.4-2.2-4.6c-4.2-1-3.6-6.2-7.8-7.5c-3.6,1-7,2.3-11.4,2.1
		c-3.4,2.3-18.2,13-19,17.4c0,1-1,3.4-2.9,3.1c-4.1-1.9-6.8-6.2-7-10.6c0.1-2.6,1.1-5.3,3.3-7.6l13-4.7c0,0,0,0-0.3-0.3
		c-0.2-0.1-0.5-0.1-0.7-0.2l1-0.3c0,0,0,0-0.3-0.3c-3.1-0.5-5.7-1.3-8.8-2.3h-0.3c-1.6,0.8-3.6,1.8-5.5,2.6c-2.3,0.5-4.4,1-5.5,2.3
		c0,0.2,0.1,0.5,0.1,0.7c0,0-0.1,0-0.1,0.1c0,0.3,0.1,0.5,0.1,0.7c-0.3,4.6-5.8,7.6-8.7,10.7c-9.4-1.6-13.3,1-22.1,3.6
		c-3.2-2.2-4.3-6.2-4.4-9.2c0.9-6.6,8.6-8.7,13.5-12.8c3.4-2.3,2.3-7.3,3.1-11.4c1.8-3.6,7.3-5.7,7.5-11.2c0-0.1,0-0.1-0.1-0.2
		c0-0.2,0.1-0.4,0.1-0.6c-1.6-3.6-1.8-8.1-4.7-10.9c-4.4-5.5-10.9-11.2-19.2-10.7c-3.1,0-5.5,3.4-8.6,4.4c0-5.5-0.3-10.9-0.5-16.4
		c-4.2,3.1-8.6,6-12.5,9.6c0,0.2,0.1,0.5,0.1,0.7c0,0-0.1,0.1-0.1,0.1c2,15.3,3.6,30.7,5.1,45.3c-2.6,2.4-18.9,11.4-21,11.1
		c-8.1,1-7,11.4-14.5,10.7c-1.8-1.4-2.2-3.2-2.2-5.2c0-1.1,0.1-2.2,0.1-3.4c0-1,0-1.9-0.2-2.9c-1.3-5.5-19.2-13.3-24.7-14.3
		c-2.6,1-1.3,9.9-2.6,11.7c-1.6,6.1-2.3,12.2-2.3,18c0,7.3,1.1,14.3,3.2,20.9c0.1,0,0.2,0,0.3,0c0.1,0,0.2,0,0.3,0
		c0.1,0,0.1,0,0.2,0c0.1,0,0.2,0,0.3,0.1c0.1,0,0.1,0,0.2,0.1c0.1,0,0.2,0.1,0.3,0.1c0.1,0,0.2,0.1,0.2,0.1c0.1,0,0.2,0.1,0.3,0.1
		c0.1,0,0.2,0.1,0.3,0.1c0.1,0,0.2,0.1,0.3,0.1c0.1,0,0.2,0.1,0.3,0.2c0.1,0,0.1,0.1,0.2,0.1c0.1,0.1,0.2,0.1,0.3,0.2
		c0,0,0.1,0.1,0.1,0.1c0.1,0.1,0.3,0.3,0.4,0.4c2.1,2.2,1.4,5.8,0.7,8.5c-0.1,0.3-0.2,0.5-0.2,0.7c0.1,0.3,0.3,0.6,0.4,0.8
		c0.2,0,0.4,0,0.6,0.1c0,0,0.1,0,0.1,0c0.2,0,0.3,0.1,0.5,0.1c0,0,0.1,0,0.1,0c0.2,0,0.3,0.1,0.5,0.1c0,0,0.1,0,0.1,0
		c0.2,0,0.3,0.1,0.5,0.1c0.1,0,0.3,0.1,0.4,0.2c2.5-0.6,5.1-1.2,7.6-1.9c1.9-0.5,3.9-0.8,5.9-1.3c1.2-0.3,2.4-0.7,3.6-0.8
		c2.6-0.3,4.1,1.2,5.4,3.3c1.4,2.3,1.2,5-0.4,7.1c-1.3,1.7-3.5,2.7-5.6,2.7c-1.6,0-3.2-0.7-4.7-0.3c-0.1,0-0.3,0.1-0.4,0.1
		c0,0,0,0,0,0c-0.3,0.1-0.5,0.3-0.8,0.4c0,0,0,0-0.1,0.1c-0.1,0.1-0.2,0.2-0.3,0.2c0,0-0.1,0.1-0.1,0.1c-0.1,0.1-0.1,0.1-0.2,0.2
		c-0.1,0.1-0.1,0.2-0.2,0.2c0,0-0.1,0.1-0.1,0.1c-0.2,0.3-0.4,0.5-0.5,0.8c0.4,0.9,0.8,1.7,1.2,2.6c0.2,0,0.4-0.1,0.6-0.1
		c0.9,0,1.9,0.4,2.3,1.2c0.6,1,0.3,2.3-0.1,3.3c0,0,0,0,0,0.1h0c0,0-0.1,0.1-0.1,0.1c24.9,21.5,64.1,24.7,92.4-10
		c2.6-2.7,4.7-5.7,6.5-8.9c3.6,1.5,7.2,2.9,10.6,4.2c1.7,0.6,3.4-0.6,3.5-2.4c0.1-4.5,1.9-8.1-3.9-11.9c-0.4-0.3-0.9-0.4-1.3-0.4
		c-1.4-0.1-2.7,0-4,0c1.6-4,3.1-8.1,4.8-12.2c5.2-1.6,8.8,5.5,14,0.8c5.5-5.5,13.8-7.5,21-8.1C622.7,545.9,622.7,541.5,622.7,538.1z
		"/>
	<path class="st0" d="M296.6,447.7c-6.5-5.5-10.1-10.7-7.8-19l2.3-1.3c2.3,0.8,22.3,7.3,21.3,2.1c-14-17.1-68.8-37.9-90.4-51.7
		c-40.8-21.3-81.6-47-122.6-75.3l-55.3,20.3l6.7,3.7c-0.1,0.1-0.1,0.1-0.2,0.2l-6.5-3.6l-25.7,9.6v6c0,0,0,0,0,0v47.2l279.8,93.9
		C302.1,469,289.6,458.8,296.6,447.7z"/>
	<path class="st0" d="M373,400.1c-5.5-0.3,0.5,21.3-4.9,27.5c19.5,16.4,43.4,29.4,65,42.9c1.8-5.5-1-10.9,2.1-15.1
		c7-11.2,21-14,32.7-14.8c6.2-1,12.5,2.6,19.2,3.9c3.1,2.3,4.2,5.5,5.2,8.8c3.4-1.3,7.3-2.6,10.7-4.2c4.7,0,15.6-7.8,22.3-9.4
		c-8.6-2.9-18.4-3.1-23.9-10.9c-1.8-2.1-10.9-12.7-19.5-23.4c0.3,2.1-0.3,3.9-1,5.2c-4.2,3.1-11.7,4.2-18.4,3.9
		c-3.4-2.3-3.6-7-3.6-10.7c-1,1.3-2.9,2.3-5.2,3.1c-4.2,0-6.5,3.4-8.8,0c-9.4-6-9.1-14.5-18.4-19.7c-4.2-6,10.4-22.9,13-30.4
		l72.5,65.2l-80-241.9l-99,36.4c23.9,62.6,46.5,123.2,66.5,175.4C395.4,399.9,382.4,399.9,373,400.1z M434.6,440.7
		c6.5,0,13-4.2,15.6-10.7c1.8-2.8,5.1-6.7,7.4-10.5l0.1,0.1c-2.3,3.6-6,7.8-7.5,10.7c-2.3,6.5-9.1,10.7-15.6,10.7
		c-3.9,0-10.7,0-13-6.5c0-0.2,0-0.3,0-0.5C424,440.7,430.7,440.7,434.6,440.7z"/>
	<path class="st0" d="M953.4,339.6c-3.9,2.3-7.8,3.1-12,3.4c-35.1,20.3-69.9,40.8-104.7,61.1c-4.2,3.4-9.6,4.2-8.1,8.6
		c9.6,0.5,24.4,4.9,32.2,0.5c93.5-43.6,187.6-87,281.6-130.9l-57.7-22.1c-40.5,23.4-80.8,46.8-121.3,70.1
		C960.5,333.6,956.3,336.5,953.4,339.6z"/>
	<path class="st0" d="M1028.5,543.8c21.6,0.3,40-14.3,50.1-3.4l9.6,12.7l212.5,23.6v-56.1l-367.6-19.2l-2.3,1
		c6.2,5.2,10.1,14,3.9,20.5c-1.3,2.1-4.2,4.2-7,5.7c5.5,2.3,11.2,4.9,17.4,6.8c0.3-0.8,0.8-1.3,1.8-1c2.1,0.8,3.6,1.3,5.5,2.3
		c2.1,0.3,4.2,0.3,5.7,0.3c2.3,1.3,4.2,3.9,4.7,6.5c0.8,0.3,1.3,0.8,2.3,0.8c0-0.3-0.3-0.3-0.3-0.8c13,0.8,26,2.3,39.2,3.1
		c7.5-3.6,1.8-10.4,3.6-15.3C1011.9,526.1,1023.1,547.4,1028.5,543.8z"/>
	<path class="st0" d="M892.3,515.5c-0.2-0.1-0.5-0.2-0.7-0.3c-7.8,1-13,3.6-18.4,6.5c8.1,2.9,16.9,4.7,24.4,6c0,0,0,0,0,0
		c0.1,0,0.2,0,0.3,0C895.6,522.7,898.7,518.4,892.3,515.5z"/>
	<path class="st0" d="M348.9,412.3c-1-5.7,2.1-15.8-3.9-19.5c-44.4-38.5-89.1-83.7-133.8-131.2l-38.4,14.2
		c56.6,48.3,110.1,95.4,166.2,133.6C343.1,410.8,344.4,414.4,348.9,412.3z"/>
	<path class="st0" d="M355.8,356l-70.7-121.9l-37.5,16.7c29.9,39.8,62.1,74.6,92.3,106.8C345.8,360.5,353.7,364,355.8,356z"/>
	<path class="st0" d="M757.4,656.9l4.1,2.1C760.2,658.3,758.9,657.6,757.4,656.9z"/>
	<path class="st0" d="M777.3,651.9c-0.6,0.4-1.3,0.7-2,1.1h147.6l-206.2-62.7c-22.3,0.3-34.3,13.8-28.3,24.9c2.3,2.1,7.8,1,10.4-0.3
		c9.4-4.2,53.5,0.8,63.9,2.3c6.2,5.2,14.8,8.1,22.6,10.9c4.4,6.5-5.2,11.2,0,17.1C785.3,645.4,782.5,655.3,777.3,651.9z"/>
	<path class="st0" d="M687.2,642c-17.1-1-8.6-18.4-20.5-22.3c-11.7,3.1-24,7.9-35.7,11l40.8,22.3h59.5
		C718.6,647.1,703.5,642.2,687.2,642z"/>
	<path class="st0" d="M414.9,592.9c2.3-2.3,7.5-5.7,13.5-9.6c-18.7-28.3-17.4-62.4,6.5-90.7c-13.3-6.5-26.8-13.5-40-19.7
		c-9.1,10.7-41.3,32.5-57.4,31.2l-319-64.2v75.8l247.3-4.6L18.4,568.2c21.8-3.2,43.7-6.3,65.5-9.4c-0.1,0.1-0.2,0.3-0.3,0.5
		c-21.9,3.1-43.9,6.2-65.8,9.4v38.2l5.3-1.4c0,0,0,0.1,0,0.1l-4.7,1.3V653h58.1l24.9-16.8c-11.3,6.9-24.1,1.1-36.2,3.1
		c-5.2,2.1-9.4,4.4-14.8,4.9c-3.1-1.8-7.5-3.4-7.5-6.2c-0.2-0.2-0.4-0.3-0.5-0.5c0.3-0.1,0.5-0.5,0.5-1.3c0.8-5.2-0.5-11.7,4.2-15.3
		c12.7-2.1,25.2-10.4,33.8-17.9c5.2-4.2,14.3,3.6,19.2-0.5c10.7-3.1,22.6-8.1,33.8-15.3c6.5-2.3,12-6.5,16.9-1.6
		c2.3,12.7-5.2,19.2-10.9,29.4c-0.3,6.5,5.7,14.5-3.1,19.2c-10.7,4.2-18.7,7.5-26.2,13.3l44.7-14l3.9-13.8
		c4.4-11.7,14.3-24.9,28.3-27.5c4.2,2.9,12.7,6,16.1,10.4c2.1,5.2-0.5,12,4.9,14.8c46-14.8,149.4-51.2,195.6-66
		C400.6,555,248.4,653,248.4,653h99.1l70.8-52.8C415.7,596.3,413.8,596,414.9,592.9z M87.7,558.7c0,0-0.1,0-0.1,0
		C87.6,558.7,87.7,558.7,87.7,558.7C87.7,558.7,87.7,558.7,87.7,558.7z M89.1,558.4l-0.8,0.1c0.3-0.1,0.6-0.2,0.9-0.4
		c0.1,0,0.3,0,0.4-0.1C89.5,558.2,89.3,558.3,89.1,558.4z M98.8,557.2c-0.1,0-0.1,0-0.2,0c0.1-0.1,0.2-0.1,0.3-0.2
		C98.8,557.1,98.8,557.1,98.8,557.2z M103.7,556.5c0.2-0.2,0.5-0.3,0.7-0.5c1.1-0.2,2.2-0.3,3.3-0.5c-0.3,0.2-0.7,0.4-1,0.6
		C105.7,556.2,104.7,556.4,103.7,556.5z M113.3,555c-0.2,0.1-0.4,0.2-0.6,0.3c-1.9,0.3-3.7,0.5-5.6,0.8c0.2-0.2,0.4-0.3,0.6-0.5
		c2-0.3,4-0.6,6-0.8C113.6,554.8,113.4,554.9,113.3,555z M116.8,554.7c-0.5,0.1-1,0.1-1.5,0.2c0.3-0.2,0.6-0.4,1-0.5
		c0.3,0,0.6-0.1,1-0.1C117.1,554.4,116.9,554.5,116.8,554.7z"/>
	<path class="st0" d="M101.4,636.2c0.6-0.4,1.3-0.8,1.9-1.3L101.4,636.2z"/>
	<g>
		<path class="st0" d="M507.3,152c5.7,74.8,17.9,272.8,17.9,272.8l37.9-293.3L507.3,152z"/>
		<path class="st0" d="M779.8,356l153.4-153.8l-51.3-19.6L746.4,356C760.9,361.4,765.3,351.3,779.8,356z"/>
		<path class="st0" d="M820.9,354.1l1.8,2.3c-1.8,1.8-17.7,18.7-9.4,18.7c18.2-5.7,42.6-24.7,65.5-42.6c-1.3-2.1-2.3-4.4-1.3-7.5
			c6-12.7,20.8-20.8,33.8-23.4c5.2-5.2,7.5-11.7,15.6-12.7c8.3-0.3,14.5-5.7,21.3-8.6c21.3-16.1,42.6-32.2,63.9-48.6l-45.5-17.4
			L789.2,357.5C799.4,352.8,809,350.5,820.9,354.1z"/>
		<path class="st0" d="M721.2,443.3c-27.7-3.4-59.1-47.7-52.3-62.2l140.7-226.2l-54.6-20.8l-29.9-11.2l-115.6,292l0,0l115.6-292
			l-67.6-26l-26.8,9.6l-26.2,9.6l10.9,56.1c3.9-1,6.8-2.6,9.4-5.7c3.9-5.2,9.1-10.7,14-4.9c0.5,7.5,0.3,14.8,1.3,22.3
			c2.3,16.9-13,27-14.3,43.9c0,6.5-3.9,11.7-5.2,19.5c-1.3,4.1,0,8.8-1,12.9c0,0.1-0.1,0.1-0.1,0.1c-4.1,1.1-9,7.7-13.9,4.9
			c-2.3-2.3-3.6-5.2-4.2-7.8l-50.1,174.3c7.5,0.5,12.2,6,18.2,7.8c-1-9.6-1.3-21-1.3-24.4c4.2-4.7,6.2-10.7,8.1-15.8
			c6-4.2,12.5,1,17.4-3.4c1-0.8,11.1-0.5,9,2.8c-0.1,0.2-0.1,0.4,0.1,0.5c4.2,2.8,10.3,6.4,7.5,12.3c-6,10.1-11.2,22.3-8.8,34.3
			c1,10.7-12.5,9.6-14.3,17.4c10.7,14.8,23.9,28.3,27.8,46.8c7.5,1,14,2.1,16.9,2.1C661.2,490,691.8,466.9,721.2,443.3z
			 M647.4,395.2l2.1-2.1l2.3-2.1l2.1-2.1l2.3-2.3l2.1-2.1l4.2-4.4l1.3-2.1l2.1-2.3l2.9-4.4l1.3-2.1l1.3-2.3l1.3-2.1h0.3l-1.3,2.1
			l-1.3,2.3l-1.3,2.1l-2.9,4.4L664,378l-1.3,2.1l-4.2,4.4l-2.1,2.1l-2.3,2.3l-2.1,2.1l-2.3,2.1l-2.1,2.1l-2.3,2.1
			c0-0.1-0.1-0.2-0.1-0.3L647.4,395.2z"/>
		<path class="st0" d="M1301.3,466v-61c-33,5.1-66,10.2-99.1,15.1c-0.7-1.9-1.9-3.7-1.9-5.6c0-0.8-0.2-1.6-0.7-2.2
			c-3.7-4.4-10-2-14.7-5.1c-0.3-0.2-0.7-0.4-1.1-0.5c-3.5-0.9-7.1-3.4-11.5-3.6c-0.4,0-0.7,0.1-1.1,0.2c-3.9,1.2-13.3,7.1-14.7,7
			c0,0,0,0-0.1,0c-1.9-0.2-3.7,1.4-3.6,3.3c0,1.1,0.2,2.2,0.4,2.9c0.7,2.3,2,5.9,4.5,7.8c0.9,0.9,1.8,1.5,2.7,2
			c-104.6,15.2-209.4,28.9-313.4,38.8c-11.7-4.7-8.3-17.4-6.2-26c2.3-5.2-33.5-3.4-41.6-9.9c-31.4,15.3-58.2,34.6-85.7,52
			c7.8,2.3,17.4,1,23.4,4.7c15.8,8.6,15.6,22.1,13.8,33c0,5.7-7.5,10.9-11.4,17.1c-9.6,5.5-23.4,1.3-33,3.9
			c-7.8,4.2-15.8,10.7-25.7,8.8c-15.8-1-33.5-7.5-47.3-1c-6,3.4-11.4,9.6-9.6,15.8c20.5,7.3,31.2,8.8,45.5,20.8
			c12,0,29.6,3.6,37.4-3.9c4.2,0,7.8,2.3,13.8,4.2l379.4,68.4h201.2l-0.5-27.5c0,0-329.7-43.8-433.6-56.6c0-0.1,0-0.1,0-0.2
			c-1-6.2-0.8-15.4-1.5-18.8c-6.5-8.6-14-12.7-15.6-23.4c-0.2,0-0.3-0.1-0.5-0.1c0,0,0-0.1,0-0.1c-4.1-0.9-8.1-2.4-11.7-4.2
			c-6.1-3.1-11-7.3-13.7-11.9c0-3.7,9.5-8.3,3.7-11.9c-0.4-0.3-1-0.6-1.7-0.9c-7.3,0.5-15.2-0.7-21.6-1.9l2.1-1.2
			C969.4,482.9,1301.1,466.1,1301.3,466z"/>
		<path class="st0" d="M792.8,386.3c0.1,0,0.1,0,0.2-0.1c3.7-1.1,5.4-4.3,3.7-6.9c-1.2-1.9-2.5-3.5-3.6-4.5c-3.2-2.8-9-7.1-15.1-8
			c-12.6-3.7-19.7,5.5-32,5.8c-6.7,0.7-9.4,4.2-13.2,7.6c-0.9,0.8-2.2,1.4-3.7,1.7c-11.7,2.3-23.8,7.5-29.5,15.6
			c-0.3,0.4-0.5,0.9-0.6,1.3c-1.3,6.3,9.3,8.4,12.2,13.4c0.7,1.2,1.8,2.2,3.4,2.7c10.5,3.5,19.4-4.3,30.4-3.5c0.9,0.1,1.8,0,2.6-0.1
			c7-1.3,15.7-0.3,23.5-3.2c0.7-0.3,1.3-0.7,1.9-1.1c5.9-4.6,16.2-8.4,15.7-15.9C788.6,389.2,790.1,387.2,792.8,386.3z"/>
	</g>
	<path class="st0" d="M921.5,435.2l188.3-34.2c-2-1.6-3.4-3.4-2.8-5.9c0.1-0.5,0.3-0.9,0.6-1.3c5.7-8.1,17.8-13.3,29.5-15.6
		c1.4-0.3,2.7-0.9,3.7-1.7c3.8-3.4,6.5-7,13.2-7.6c12.3-0.3,19.4-9.5,32-5.8c6.1,0.8,11.9,5.1,15.1,8c1.1,1,2.4,2.6,3.6,4.5
		c1.7,2.7,0,5.8-3.7,6.9c-0.1,0-0.1,0-0.2,0.1c-1.7,0.5-3,1.6-3.6,2.8l104-18.9v-23.5l-100-38.2c-63.1,27.7-215.5,92.8-278.1,120.3
		C916.4,429.8,909.8,431.6,921.5,435.2z"/>
	<path class="st0" d="M477.8,627.6l-49.2,26.5l186.6,0.6L584,637.4c0,0-22.3,2.3-50.1,0.5l-7.8,2.7c-4.6,0.9-9.7,2-14.3,2.9
		c-3.8-1-7.9-0.4-11.6,0c-3.4-1.6-7.9-2.8-12.9-3.8c0.4-2.9,1.8-5.6,3.4-8.2C486.3,630.4,482,629.1,477.8,627.6z"/>
</g>
</svg>
