<?xml version="1.0" encoding="utf-8"?>
<!-- Generator: Adobe Illustrator 26.0.1, SVG Export Plug-In . SVG Version: 6.00 Build 0)  -->
<svg version="1.1" id="Layer_1" xmlns="http://www.w3.org/2000/svg" xmlns:xlink="http://www.w3.org/1999/xlink" x="0px" y="0px"
	 viewBox="0 0 495.3 225" style="enable-background:new 0 0 495.3 225;" xml:space="preserve">
<style type="text/css">
	.st0{fill-rule:evenodd;clip-rule:evenodd;fill:#FFFFFF;}
</style>
<g>
	<path class="st0" d="M192.8,176.9c0.3,0.2,0.6,0.4,0.9,0.5c0.4-1.3,0.8-2.5,1.6-3.7C193.8,174.6,192.4,175.4,192.8,176.9z"/>
	<path class="st0" d="M108.7,158.6l-78.9-27.1c-1.7-0.7-3.7-1.4-5.3-1.6c-1.1,2.4,2.5,2.8,3.3,4.5c1.1,1.3,1.1,3.4,2.1,4.3
		c-0.5,1.3-2.1,1.1-2.1,2.6c-0.3,1.9,0.1,4-1.6,5c-2.1,0.8-5.2,0.7-6.8,2.1l0.1,0.3l106,23.4c1.3-3.2-2.5-6.1-0.5-9.3
		c-1.9-1.6-3-3.1-2.4-5.4l0.7-0.4c0.7,0.2,6.5,2.1,6.2,0.5c-4.1-5-20-10.9-26.3-14.9c-28.1-14.4-56.6-36.4-84.7-56.7l-16.1,6
		l-0.1,8.3L108.7,158.6z"/>
	<path class="st0" d="M154.4,146.7c-1,2.3-4.8,2.4-7.5,2.4c-1.6-0.1,0.2,6.2-1.4,7.9c5.7,4.7,12.6,8.4,18.9,12.3
		c0.5-1.6-0.3-3.2,0.5-4.4c2-3.3,6.1-4,9.5-4.3c1.8-0.4,3.6,0.7,5.6,1.1c0.9,0.7,1.3,1.6,1.4,2.5c1-0.4,2.1-0.8,3.1-1.2
		c1.4,0,4.5-2.3,6.5-2.8c-2.5-0.8-5.4-0.9-7-3.1c-0.5-0.5-3.2-3.7-5.7-6.8c0.1,0.5-0.1,1.1-0.4,1.5c1.2-0.9,0,0,0,0
		c-1.2,0.9-3.4,1.2-5.4,1.2c-1-0.7-1.1-2-1.1-3.1c-0.4,0.4-0.8,0.7-1.5,0.9c-1.2,0-1.9,1-2.6,0c-2.7-1.8-2.7-4.2-5.4-5.7
		c-1.2-1.8-1.2-4.2-0.8-6c1.5-1.4,3.8-0.7,4.5-2.9l-24.9-35V70.5l45.8,84.5h0.3L147.3,37.7l-31.2,11.7
		C129.8,82.4,143.4,118.7,154.4,146.7z M164.7,152c1.5-0.8,3.8-0.3,4.6,0.3l2.2,2.3c-0.7,1.1-1.8,2.3-2.2,3.1
		c-0.8,1.9-2.6,3.1-4.5,3.1c-1.1,0-3.1,0-3.8-1.9C161,156.3,162.5,153.3,164.7,152z"/>
	<path class="st0" d="M198.6,45.7c0.3,0.8,1.3,0.6,1.3,0l1-28.1l-20.3,7.7c3.3,22.3,6.9,93.2,10.9,91.5
		C195.5,119,196.6,42.1,198.6,45.7z"/>
	<path class="st0" d="M288.7,152c53.6-25.4,107.7-50.7,161.3-76.3l-27-10.1c-34.4,21-69.7,41.7-104.5,62.1c-1,1-2.2,1.8-3,2.7
		c-1.1,0.7-2.3,0.9-3.4,1c-10.1,6-20.3,12-30.3,17.9c-1.1,1-2.8,1.1-2.3,2.5C282.1,152,286.4,153.3,288.7,152z"/>
	<path class="st0" d="M274.8,141.3c5.3-1.8,12.4-7.2,19-12.5c-0.4-0.6-0.7-1.3-0.4-2.2c1.8-3.7,5.9-6,9.7-6.9
		c1.4-1.5,2.2-3.4,4.5-3.7c2.4-0.1,4.2-1.8,6.2-2.5c26-19.8,51.7-39.9,77.7-59.7L370.6,46l-91.4,75.8l65.2-68.1
		c1.6-1.4,3.3-3.2,4-4.6c-3.4-1.4-5.1,1.8-7.9,2.2c-2.3,0.8-5.8,0.4-7.4,1.1c-1.8-0.7-1.1-2.2-3.4-2.5c-2.8-0.6-6.3-0.6-7.4-2.5
		c-0.7-2.1,0.5-5-1.3-6.7h-0.5l-67.3,94c4.6,1.8,10.2-1.1,14.7,1.3c3-1.4,5.8-2.2,9.2-1.1l0.5,0.7
		C277,136.3,272.3,141.3,274.8,141.3z"/>
	<path class="st0" d="M213,62.3l4.2,20.3c1-0.4,1.9-0.8,2.6-1.6c1.1-1.5,2.6-3.1,4.2-1.5c0.2,2.2,0.1,4.3,0.4,6.5
		c0.8,4.9-3.7,7.8-4,12.8c0,1.9-1.1,3.4-1.4,5.7c-0.4,1.2,0,2.6-0.3,3.8c-1.2,0.3-2.6,2.3-4.2,1.5c-0.7-0.7-1.1-1.4-1.3-2.3
		l-14.3,50.7c2.1,0.1,3.6,1.8,5.3,2.2c-0.4-2.8-0.4-6-0.4-7.1c1.3-1.4,1.8-3.1,2.3-4.6c1.8-1.1,3.6,0.3,5.1-1
		c0.3-0.2,3.4-0.2,2.5,0.9c1.3,0.8,3.1,1.9,2.3,3.6c-1.8,3-3.3,6.5-2.5,10c0.3,3.1-3.6,2.8-4.2,5.1c3.1,4.3,6.9,8.2,8.2,13.5
		c2.2,0.4,4.2,0.6,4.9,0.6c8.4-6.5,17.3-13.3,25.9-20.2c-4-3-11.5-12.9-9.6-17.1l64-123.4L247.4,0l-27.2,10.2L213,62.3z M234,138.4
		l-0.4,0.5l-0.4,0.7l-0.4,0.5l-0.4,0.7l-0.4,0.7l-0.5,0.7l-0.4,0.5l-0.5,0.7l-0.5,0.7l-0.5,0.5l-0.7,0.7l-0.5,0.5l-0.7,0.5l-0.5,0.5
		l-0.7,0.5c-0.4-1.5,0.8-2.6,1.4-3.8c1.9-1.9,4.2-4.6,6.3-5.7h0.4L234,138.4z M249.9,76.5c1.4,0,2.3,1.4,2.6,2.3
		c0.7,1,0.2,4.3,0.1,6.3c-1.3,2.7-5.3,10.7-5.3,10.7c-0.3,0.3-1.1,0.3-1.9,0.3c-2.6-3.4-4.6-7.8-2.7-12
		C242.7,80,247.6,79.2,249.9,76.5z M225.1,36.8c1.4-4,3.5-8,5.7-12c1.5-2.5,4.2-3.3,7.2-3.4l5.9-2.7c1.9,1,5.3-0.2,5.4,2.3l-1.4,8.3
		c-1,2.9-2.1,6.1-3.1,9c-2.2,1.9-3.3,4.5-4.3,6.6c-2.5,1.4-5.1,3.7-7.7,6.3c-0.4-0.2-0.7-0.4-1.1-0.6l0.5,9.2c0,3.7-3,5.7-3.7,9.1
		l-1.6,4.5c-5.9-0.5-3.5-11.2-7.5-13.5c-0.3-2.3,2.6-3.8,3.4-5.7c0.9-2.8,1.6-6.7,3.6-9.1c-0.3-0.4-0.6-0.8-0.9-1.1
		C224.8,41.5,224.8,39.3,225.1,36.8z"/>
	<path class="st0" d="M170.8,54.5l1-3.1l4-3.7c0-6.5,0.1-13.7,0.2-20.8l-12.6,4.7c2.6,12.4,5,23.9,5.6,25.8
		C170.4,57.1,170.4,55.7,170.8,54.5z"/>
	<path class="st0" d="M264.8,221.4c-1.6,1-4,2.5-6.3,1.4c-4.1-2.2-9.2-4.2-15-4.2c-5-0.3-3.3-3.8-6.8-4.9
		c-7.9,2.2-15.3,5.1-24.4,5.1c-5.5,0.4-10.6,0.2-15.2-0.2c-11.3,2.9-24.5,0.3-33.7-9.7c-0.2-1-4.2-2.9-3.9-4
		c0.7-0.7,2.2-1.8,3.9-2.8c-5.5-8.2-5.2-18,1.6-26.3c-3.9-1.9-7.7-3.9-11.7-5.7c-2.6,3-12,9.5-16.6,9.2L1.2,153.1l-0.6,34.6l98.8-4
		l-99,16l-0.1,5.9c43.3-7.5,87.3-13.2,130.7-19.9l0.5,0.4c-1.1,0.5-2.7,1.2-4,1.3c-1.4,1.4,0.9,2.4,1.1,3.4
		c-0.6,3.3-3.4,5.9-6.4,6.5c-2-0.4-3.3-2.1-6-2.1c-1.3,1-0.1,2.4-0.5,4c-0.2,0.8-1.3,1.6-2.4,2.1c-1.6,0-3.8-1.1-4.8-2.5
		c-1.5-1.6-1.3-4.2-0.4-5.9l-0.5-0.2l-107.5,29L0,225h60.6l7.5-2.4c-3.4,0.5-6.7-0.5-10.3,0.1c-1.4,0.6-2.7,1.3-4.3,1.5
		c-0.9-0.5-2.1-1-2.2-1.8c-1.4-1.3-0.1-2.8,0-3.9c0.2-1.4-0.2-3.4,1.1-4.5c3.7-0.6,7.2-3.1,9.8-5.3c1.4-1.2,4.2,1,5.6-0.2
		c3.1-0.9,6.6-2.4,9.7-4.5c1.9-0.8,3.5-1.9,4.9-0.5c0.7,3.7-1.5,5.6-3,8.6c-0.1,1.9,1.6,4.2-0.9,5.6c-3.1,1.3-5.4,2.1-7.6,3.9
		l13-4.2l1.1-4c1.3-3.4,4.2-7.2,8.2-8.1c1.3,0.8,3.7,1.6,4.7,3c0.6,1.4-0.1,3.5,1.5,4.3c13.4-4.4,28-8.3,41.4-12.6
		c-1,1.1-3.3,1.9-4.6,2.9c-3.1,1.8-5.9,2.2-9.4,3.6l-22.3,9.8l-2.6,0.5c-6.2,3.1-12.1,5.4-18.3,8.2h233.2l-69.9-21.2
		c-6.3,0.1-9.7,4-7.9,7.2c0.7,0.6,2.3,0.3,3-0.1c2.7-1.3,15.5,0.1,18.5,0.5c1.8,1.4,4.3,2.3,6.6,3c1.3,1.9-1.5,3.3,0,5
		C267.1,219.6,266.2,222.5,264.8,221.4z"/>
	<path class="st0" d="M6.5,111.9l-4.6-1.7l-0.1,5.1C3.6,114.5,6.1,114.2,6.5,111.9z"/>
	<path class="st0" d="M483.1,224.8l-57.2-7.9c-1.8,0.1-3.4-0.7-4.6-0.3c0,0.8,0.5,1.2,1.6,1.1c1.1,0,3.4,0,3.4,1.2
		c0,2.2,1.1,4,3,5.6c0,0.1,0,0.2-0.1,0.4h53.9V224.8z"/>
	<path class="st0" d="M3.9,126c-0.7-0.7-1.4-1.5-2.2-2.3l-0.2,9.6l3.6,0.8C6,131.9,5.1,128,3.9,126z"/>
	<path class="st0" d="M476.3,85.6c-55.9,22.6-114.5,43.3-171.3,64.9c-1.8,1.6-2.2,6.8,1.3,7.8l186.4-43.6V136
		c-68.8,10.6-137.8,23.5-208,30.6c-3.3-1.3-2.3-5-1.6-7.4c0.7-1.4-9.7-0.9-12.1-2.8c-9.1,4.5-16.8,10.1-24.8,15.2
		c2.3,0.7,5.1,0.3,6.8,1.3c4.6,2.5,4.6,6.4,4.1,9.6c0,1.8-2.2,3.2-3.3,5c-2.8,1.6-6.8,0.4-9.6,1.1c-2.3,1.1-4.6,3-7.4,2.6
		c-4.6-0.3-9.7-2.1-13.7-0.2c-1.6,1-3.3,2.8-2.8,4.6c5.9,2.1,9.1,2.5,13.2,5.9c3.4,0,8.6,1,10.9-1.1c1.1,0,2.3,0.7,4,1.1
		c18.3,3.4,36.3,7.1,55.3,11.4c1-2.2,4.5-1.9,6.8-3.2c7.2-1.6,6.3,4.2,9.7,6.3l39.6,8.8h24.8c-2-0.2-3.9-0.7-5.4-1.9
		c-4.5,0.8-6.9-2.5-10.9-2.5c-2.8-2.3-7.4-4.5-5.8-7.5c2.3-0.8,4-2.6,6.3-3.1V209c-13.9-2.5-26.9-3.8-40.6-6.3h-4l-36-5.4
		c-5.6-0.8-9.9-0.7-15-1.8c-2.3-0.8-5.9-1.1-7.7-2c8.3,0.7,16.8,1.3,25.5,1.8c-0.7-1.1-0.2-2.9-0.5-4.2c-1.9-2.5-4-3.7-4.5-6.8
		c-3.3-0.8-6.3-2.5-7.6-4.7c0-1.1,3.1-2.5,0.7-3.6c-2.2,0.1-4.6-0.2-6.5-0.5l0.7-0.4c72.9-1.9,146.4-5.1,219.3-5.7l0.2,16.6
		l-182.7-8.5l-0.7,0.3c1.8,1.5,3,4,1.1,5.9c-0.4,0.6-1.1,1.1-2,1.7c2.7,1.3,5.8,2.4,8.8,2.4c1.5,0.8,1.5,2.7,2,4.2
		c0.3,1.1,1.9,2.3,0.8,3.8c0,0.5-0.4,1-1,1.4c3.9,0.2,7.7,0.5,11.4,0.8c2.2-1.1,0.5-3,1-4.5c1.1-1.5,4.5-2.7,6.1-3.8
		c6.3,0,11.5,3.3,14.6,6.3l2.8,3.7l138,11.1c0,4.2,0.1,9.6,0.2,13.9h2.1V92.6L476.3,85.6z M492.7,163.5l-173.3,3.7l173.3-17.6V163.5
		z"/>
	<path class="st0" d="M292.5,183.6c2.4,0.8,4.9,1.3,7.1,1.7c-0.8-1.4,0.4-2.8-1.8-3.6C295.5,181.9,294,182.8,292.5,183.6z"/>
	<path class="st0" d="M172.1,149.1c1-0.9,2.7-1.2,4.2-1.1c-1.4-1.8-2.5-3-2.5-2.8C172.7,146,172.7,147.7,172.1,149.1z"/>
	<path class="st0" d="M139.9,152.8c-0.4-1.6,0.5-4.5-1.1-5.7c-25.2-21.4-50.6-50.4-76-77.7l-18.5,6.9c31.2,26.4,62.1,54.8,92.8,75.4
		C138.3,152.3,138.6,153.4,139.9,152.8z"/>
	<path class="st0" d="M135.1,137.4c1.8,0.8,7.4,0,8-2.3L99.7,55.6l-22,8.3C96.9,89.8,115.8,117.3,135.1,137.4z"/>
</g>
<circle class="st0" cx="195.3" cy="192.2" r="16.5"/>
</svg>
