<svg width="13487" height="5907" viewBox="0 0 13487 5907" fill="none" xmlns="http://www.w3.org/2000/svg">
<path d="M1470.01 2381.23C1518.35 2432.72 1579.29 2395.94 1637.08 2424.31C1670.71 2436.92 1694.88 2422.21 1722.2 2411.7C1728.5 2409.6 1735.86 2409.6 1742.16 2410.65C1805.21 2425.36 1880.86 2424.31 1931.3 2388.58C1961.77 2354.96 1914.48 2316.07 1915.54 2279.3C1915.54 2270.89 1913.43 2262.48 1908.18 2256.18C1869.3 2209.94 1803.1 2235.16 1753.72 2202.58C1750.57 2200.48 1746.36 2198.38 1742.16 2197.33C1705.38 2187.87 1667.56 2161.6 1621.32 2159.5C1617.12 2159.5 1613.97 2160.55 1609.76 2161.6C1568.78 2174.21 1470.01 2236.21 1455.3 2235.16C1455.3 2235.16 1455.3 2235.16 1454.25 2235.16C1434.29 2233.06 1415.37 2249.87 1416.42 2269.84C1416.42 2281.4 1418.53 2292.96 1420.63 2300.31C1429.03 2324.48 1443.74 2362.31 1470.01 2381.23Z" fill="#E058FF"/>
<path d="M2031.12 2794.21C2053.18 2850.96 2120.43 2853.06 2156.16 2900.35C2158.26 2903.5 2160.36 2905.6 2163.51 2907.7C2195.04 2929.77 2221.3 2968.65 2264.39 2987.57C2267.54 2988.62 2270.69 2989.67 2274.89 2989.67C2315.87 2993.87 2368.41 3018.04 2398.88 2988.62C2409.39 2979.16 2424.1 2976.01 2436.71 2982.31C2436.71 2982.31 2436.71 2982.31 2437.76 2982.31C2455.62 2991.77 2478.74 2982.31 2483.99 2962.35C2486.1 2952.89 2488.2 2944.48 2488.2 2937.13C2489.25 2912.96 2487.15 2874.08 2468.23 2846.75C2438.81 2783.7 2373.66 2793.16 2328.48 2745.87C2301.16 2722.75 2274.89 2726.96 2246.52 2724.86C2240.22 2724.86 2234.96 2722.75 2229.71 2718.55C2176.12 2680.72 2107.82 2653.4 2050.03 2667.06C2012.2 2685.97 2043.73 2737.47 2032.17 2770.04C2029.02 2778.45 2029.02 2786.86 2031.12 2794.21Z" fill="#E058FF"/>
<path d="M4695.84 3049.57C4668.52 3076.89 4663.27 3142.04 4641.2 3189.33C4676.93 3156.76 4739.97 3145.2 4788.31 3151.5C4734.72 3090.55 4695.84 3042.21 4695.84 3049.57Z" fill="#E058FF"/>
<path d="M6356.04 4636.36C6369.7 4635.3 6372.86 4626.9 6370.75 4616.39C6373.91 4599.58 6353.94 4570.15 6347.64 4568.05C6303.51 4557.54 6309.81 4502.9 6265.68 4489.24C6227.85 4499.74 6192.13 4513.41 6145.89 4511.3C6110.17 4535.47 5954.65 4647.91 5946.25 4694.15C5946.25 4704.66 5935.74 4729.88 5915.78 4726.73C5872.69 4706.76 5844.32 4661.58 5842.22 4615.34C5843.27 4588.02 5853.78 4559.64 5876.9 4535.47L6013.5 4486.08C6013.5 4486.08 6013.5 4486.08 6010.34 4482.93C6008.24 4481.88 6005.09 4481.88 6002.99 4480.83L6013.5 4477.68C6013.5 4477.68 6013.5 4477.68 6010.34 4474.52C5977.77 4469.27 5950.45 4460.86 5917.88 4450.36H5914.73C5897.91 4458.76 5876.9 4469.27 5856.93 4477.68C5832.77 4482.93 5810.7 4488.19 5799.14 4501.85C5799.14 4503.95 5800.19 4507.1 5800.19 4509.2C5800.19 4509.2 5799.14 4509.2 5799.14 4510.25C5799.14 4513.41 5800.19 4515.51 5800.19 4517.61C5797.04 4565.95 5739.25 4597.47 5708.78 4630.05C5610 4613.24 5569.03 4640.56 5476.56 4667.88C5442.93 4644.76 5431.38 4602.73 5430.33 4571.2C5439.78 4501.85 5520.69 4479.78 5572.18 4436.69C5607.9 4412.52 5596.35 4359.98 5604.75 4316.9C5623.67 4279.07 5681.46 4257 5683.56 4199.2C5683.56 4198.15 5683.56 4198.15 5682.51 4197.1C5682.51 4195 5683.56 4192.9 5683.56 4190.8C5666.75 4152.96 5664.64 4105.68 5634.17 4076.25C5587.94 4018.46 5519.64 3958.56 5432.43 3963.81C5399.85 3963.81 5374.64 3999.54 5342.06 4010.05C5342.06 3952.25 5338.91 3895.51 5336.81 3837.71C5292.68 3870.29 5246.44 3900.76 5205.46 3938.59C5205.46 3940.69 5206.51 3943.84 5206.51 3945.95L5205.46 3947C5226.48 4107.78 5243.29 4269.61 5259.05 4423.03C5231.73 4448.25 5060.46 4542.83 5038.39 4539.68C4953.28 4550.19 4964.84 4659.47 4886.03 4652.12C4867.12 4637.41 4862.92 4618.49 4862.92 4597.47C4862.92 4585.92 4863.97 4574.36 4863.97 4561.75C4863.97 4551.24 4863.97 4541.78 4861.86 4531.27C4848.2 4473.47 4660.12 4391.51 4602.33 4381C4575.01 4391.51 4588.67 4485.03 4575.01 4503.95C4558.2 4568.05 4550.84 4632.15 4550.84 4693.1C4550.84 4769.81 4562.4 4843.37 4584.46 4912.73C4585.52 4912.73 4586.57 4912.73 4587.62 4912.73C4588.67 4912.73 4589.72 4912.73 4590.77 4912.73C4591.82 4912.73 4591.82 4912.73 4592.87 4912.73C4593.92 4912.73 4594.97 4912.73 4596.02 4913.78C4597.07 4913.78 4597.07 4913.78 4598.12 4914.83C4599.17 4914.83 4600.23 4915.88 4601.28 4915.88C4602.33 4915.88 4603.38 4916.93 4603.38 4916.93C4604.43 4916.93 4605.48 4917.98 4606.53 4917.98C4607.58 4917.98 4608.63 4919.03 4609.68 4919.03C4610.73 4919.03 4611.78 4920.09 4612.83 4920.09C4613.89 4920.09 4614.94 4921.14 4615.99 4922.19C4617.04 4922.19 4617.04 4923.24 4618.09 4923.24C4619.14 4924.29 4620.19 4924.29 4621.24 4925.34L4622.29 4926.39C4623.34 4927.44 4625.44 4929.54 4626.49 4930.59C4648.56 4953.71 4641.21 4991.54 4633.85 5019.92C4632.8 5023.07 4631.75 5025.17 4631.75 5027.27C4632.8 5030.42 4634.9 5033.58 4635.95 5035.68C4638.05 5035.68 4640.15 5035.68 4642.26 5036.73H4643.31C4645.41 5036.73 4646.46 5037.78 4648.56 5037.78H4649.61C4651.71 5037.78 4652.76 5038.83 4654.86 5038.83H4655.92C4658.02 5038.83 4659.07 5039.88 4661.17 5039.88C4662.22 5039.88 4664.32 5040.93 4665.37 5041.98C4691.64 5035.68 4718.96 5029.37 4745.23 5022.02C4765.19 5016.76 4786.21 5013.61 4807.23 5008.36C4819.83 5005.2 4832.44 5001 4845.05 4999.95C4872.37 4996.8 4888.13 5012.56 4901.79 5034.63C4916.5 5058.8 4914.4 5087.17 4897.59 5109.24C4883.93 5127.1 4860.81 5137.61 4838.75 5137.61C4821.94 5137.61 4805.12 5130.26 4789.36 5134.46C4788.31 5134.46 4786.21 5135.51 4785.16 5135.51C4782.01 5136.56 4779.91 5138.66 4776.75 5139.71C4776.75 5139.71 4776.75 5139.71 4775.7 5140.76C4774.65 5141.82 4773.6 5142.87 4772.55 5142.87L4771.5 5143.92C4770.45 5144.97 4770.45 5144.97 4769.4 5146.02C4768.35 5147.07 4768.35 5148.12 4767.3 5148.12L4766.25 5149.17C4764.14 5152.32 4762.04 5154.43 4760.99 5157.58C4765.19 5167.04 4769.4 5175.44 4773.6 5184.9C4775.7 5184.9 4777.8 5183.85 4779.91 5183.85C4789.36 5183.85 4799.87 5188.05 4804.07 5196.46C4810.38 5206.97 4807.23 5220.63 4803.02 5231.14C4803.02 5231.14 4803.02 5231.14 4803.02 5232.19L4801.97 5233.24C5063.61 5459.17 5475.51 5492.8 5772.87 5128.15C5800.19 5099.78 5822.26 5068.26 5841.17 5034.63C5879 5050.39 5916.83 5065.1 5952.55 5078.76C5970.42 5085.07 5988.28 5072.46 5989.33 5053.54C5990.38 5006.26 6009.29 4968.43 5948.35 4928.49C5944.15 4925.34 5938.89 4924.29 5934.69 4924.29C5919.98 4923.24 5906.32 4924.29 5892.66 4924.29C5909.47 4882.26 5925.23 4839.17 5943.1 4796.09C5997.74 4779.27 6035.56 4853.88 6090.2 4804.49C6147.99 4746.69 6235.21 4725.68 6310.86 4719.37C6356.04 4718.32 6356.04 4672.08 6356.04 4636.36Z" fill="#E058FF"/>
<path d="M2929.52 3686.39C2861.22 3628.59 2823.39 3573.95 2847.56 3486.73L2871.73 3473.06C2895.89 3481.47 3106.04 3549.78 3095.54 3495.13C2948.43 3315.44 2372.61 3096.86 2145.65 2951.84C1716.94 2728.01 1288.23 2457.94 857.42 2160.55L276.35 2373.87L346.751 2412.76C345.7 2413.81 345.7 2413.81 344.649 2414.86L276.35 2377.03L6.30469 2477.91V2540.96V3036.96L2946.33 4023.71C2987.31 3910.22 2855.96 3803.03 2929.52 3686.39Z" fill="#E058FF"/>
<path d="M3732.3 3186.18C3674.5 3183.03 3737.55 3410.01 3680.81 3475.17C3885.71 3647.51 4136.84 3784.12 4363.8 3925.98C4382.72 3868.18 4353.29 3811.44 4385.87 3767.3C4459.42 3649.61 4606.53 3620.18 4729.47 3611.78C4794.61 3601.27 4860.81 3639.1 4931.21 3652.76C4963.79 3676.93 4975.34 3710.56 4985.85 3745.23C5021.58 3731.57 5062.56 3717.91 5098.28 3701.1C5147.67 3701.1 5262.2 3619.13 5332.6 3602.32C5242.24 3571.84 5139.26 3569.74 5081.47 3487.78C5062.56 3465.71 4966.94 3354.32 4876.57 3241.88C4879.73 3263.94 4873.42 3282.86 4866.07 3296.52C4821.93 3329.1 4743.13 3340.66 4672.73 3337.5C4637 3313.33 4634.9 3263.94 4634.9 3225.06C4624.39 3238.72 4604.43 3249.23 4580.26 3257.64C4536.13 3257.64 4511.96 3293.37 4487.79 3257.64C4389.02 3194.59 4392.17 3105.27 4294.45 3050.62C4250.32 2987.57 4403.73 2809.98 4431.05 2731.16L5192.85 3416.32L4352.24 874.309L3311.99 1256.82C3563.12 1914.65 3800.6 2551.47 4010.75 3100.01C3967.67 3184.08 3831.07 3184.08 3732.3 3186.18ZM4379.56 3612.83C4447.86 3612.83 4516.16 3568.69 4543.48 3500.39C4562.4 3470.96 4597.07 3429.98 4621.24 3390.05L4622.29 3391.1C4598.12 3428.93 4559.24 3473.06 4543.48 3503.54C4519.31 3571.84 4447.86 3615.98 4379.56 3615.98C4338.58 3615.98 4267.13 3615.98 4242.97 3547.67C4242.97 3545.57 4242.97 3544.52 4242.97 3542.42C4268.18 3612.83 4338.58 3612.83 4379.56 3612.83Z" fill="#E058FF"/>
<path d="M9830.9 2550.42C9789.92 2574.59 9748.94 2582.99 9704.81 2586.15C9335.99 2799.47 8970.33 3014.89 8604.66 3228.22C8560.53 3263.94 8503.79 3272.35 8519.55 3318.59C8620.42 3323.84 8775.94 3370.08 8857.9 3323.84C9840.35 2865.67 10829.1 2409.6 11816.8 1948.28L11210.5 1716.04C10785 1961.94 10361.5 2207.84 9935.97 2452.69C9905.5 2487.37 9861.37 2517.84 9830.9 2550.42Z" fill="#E058FF"/>
<path d="M10620 4696.25C10847 4699.41 11040.3 4545.98 11146.5 4660.53L11247.3 4793.98L13480.2 5041.98V4452.46L9617.6 4250.69L9593.43 4261.2C9658.58 4315.85 9699.56 4408.32 9634.41 4476.63C9620.75 4498.69 9590.28 4520.76 9560.86 4536.52C9618.65 4560.69 9678.54 4588.02 9743.69 4607.98C9746.84 4599.58 9752.1 4594.32 9762.61 4597.47C9784.67 4605.88 9800.43 4611.14 9820.4 4621.64C9842.46 4624.8 9864.53 4624.8 9880.29 4624.8C9904.46 4638.46 9924.42 4665.78 9929.68 4693.1C9938.08 4696.25 9943.34 4701.51 9953.84 4701.51C9953.84 4698.36 9950.69 4698.36 9950.69 4693.1C10087.3 4701.51 10223.9 4717.27 10362.6 4725.68C10441.4 4687.85 10381.5 4616.39 10400.4 4564.9C10445.6 4510.25 10563.3 4734.08 10620 4696.25Z" fill="#E058FF"/>
<path d="M9188.89 4398.86C9186.79 4397.81 9183.64 4396.76 9181.53 4395.71C9099.58 4406.22 9044.94 4433.54 8988.2 4464.02C9073.31 4494.49 9165.77 4513.41 9244.58 4527.07C9245.63 4527.07 9246.68 4527.07 9247.73 4527.07C9223.57 4474.52 9256.14 4429.34 9188.89 4398.86Z" fill="#E058FF"/>
<path d="M3479.06 3314.38C3468.56 3254.49 3501.13 3148.35 3438.08 3109.47C2971.55 2704.89 2501.86 2229.91 2032.17 1730.75L1628.68 1879.97C2223.41 2387.53 2785.56 2882.48 3375.04 3283.91C3418.12 3298.62 3431.78 3336.45 3479.06 3314.38Z" fill="#E058FF"/>
<path d="M3551.57 2722.76L2808.68 1441.77L2414.64 1617.26C2728.82 2035.5 3067.17 2401.19 3384.5 2739.57C3446.49 2770.04 3529.5 2806.82 3551.57 2722.76Z" fill="#E058FF"/>
<path d="M7771.41 5884.77L7814.49 5906.83C7800.84 5899.48 7787.18 5892.12 7771.41 5884.77Z" fill="#E058FF"/>
<path d="M7980.52 5832.23C7974.21 5836.43 7966.86 5839.58 7959.5 5843.78H9510.42L7343.76 5184.9C7109.44 5188.05 6983.35 5329.92 7046.39 5446.56C7070.56 5468.63 7128.35 5457.07 7155.67 5443.41C7254.44 5399.27 7717.83 5451.82 7827.11 5467.58C7892.25 5522.22 7982.62 5552.7 8064.58 5582.12C8110.81 5650.43 8009.94 5699.82 8064.58 5761.82C8064.58 5763.92 8035.16 5867.95 7980.52 5832.23Z" fill="#E058FF"/>
<path d="M7033.78 5728.19C6854.1 5717.68 6943.42 5534.83 6818.38 5493.85C6695.44 5526.43 6566.2 5576.87 6443.26 5609.44L6871.97 5843.78H7497.17C7363.72 5781.78 7205.06 5730.29 7033.78 5728.19Z" fill="#E058FF"/>
<path d="M4172.56 5212.22C4196.73 5188.05 4251.37 5152.32 4314.42 5111.34C4117.93 4813.95 4131.59 4455.61 4382.72 4158.22C4242.97 4089.91 4101.11 4016.35 3962.41 3951.2C3866.79 4063.64 3528.45 4292.73 3359.28 4279.07L7.35532 3604.42V4400.97L2605.88 4352.63L6.30456 4952.66C235.37 4919.04 465.486 4886.46 694.552 4853.88C693.501 4854.93 692.45 4857.03 691.4 4859.14C461.283 4891.71 230.116 4924.29 0 4957.92V5359.34L55.6903 5344.63V5345.68L6.30456 5359.34V5843.78H616.796L878.435 5667.24C759.699 5739.75 625.202 5678.8 498.06 5699.82C443.42 5721.89 399.289 5746.05 342.548 5751.31C309.974 5732.39 263.741 5715.58 263.741 5686.16C261.639 5684.05 259.538 5683 258.487 5680.9C261.639 5679.85 263.741 5675.65 263.741 5667.24C272.147 5612.6 258.487 5544.29 307.872 5506.46C441.319 5484.39 572.664 5397.17 663.029 5318.36C717.669 5274.22 813.288 5356.19 864.775 5313.1C977.206 5280.53 1102.25 5227.99 1219.93 5152.32C1288.23 5128.15 1346.02 5084.02 1397.51 5135.51C1421.68 5268.97 1342.87 5337.27 1282.98 5444.46C1279.82 5512.77 1342.87 5596.83 1250.4 5646.22C1137.97 5690.36 1053.91 5725.04 975.105 5785.99L1444.79 5638.87L1485.77 5493.85C1532.01 5370.9 1636.03 5232.19 1783.14 5204.87C1827.27 5235.34 1916.58 5267.92 1952.31 5314.15C1974.38 5368.8 1947.06 5440.26 2003.8 5469.68C2487.15 5314.16 3573.63 4931.65 4059.08 4776.12C4022.31 4813.95 2423.05 5843.78 2423.05 5843.78H3464.35L4208.29 5288.93C4180.97 5247.95 4161.01 5244.8 4172.56 5212.22ZM749.191 4849.68L740.785 4850.73C743.938 4849.68 747.09 4848.63 750.242 4846.53C751.293 4846.53 753.394 4846.53 754.445 4845.48C753.394 4847.58 751.293 4848.63 749.191 4849.68ZM851.115 4837.07C850.064 4837.07 850.064 4837.07 849.013 4837.07C850.064 4836.02 851.115 4836.02 852.166 4834.97C851.115 4836.02 851.115 4836.02 851.115 4837.07ZM902.602 4829.71C904.704 4827.61 907.856 4826.56 909.958 4824.46C921.516 4822.36 933.074 4821.31 944.632 4819.2C941.48 4821.31 937.277 4823.41 934.125 4825.51C923.617 4826.56 913.11 4828.66 902.602 4829.71ZM1003.48 4813.95C1001.37 4815 999.272 4816.05 997.17 4817.1C977.206 4820.25 958.292 4822.36 938.328 4825.51C940.43 4823.41 942.531 4822.36 944.632 4820.25C965.648 4817.1 986.663 4813.95 1007.68 4811.85C1006.63 4811.85 1004.53 4812.9 1003.48 4813.95ZM1040.25 4810.8C1035 4811.85 1029.74 4811.85 1024.49 4812.9C1027.64 4810.8 1030.79 4808.7 1035 4807.64C1038.15 4807.64 1041.3 4806.59 1045.51 4806.59C1043.4 4807.64 1041.3 4808.7 1040.25 4810.8Z" fill="#E058FF"/>
<path d="M878.434 5667.24C884.738 5663.04 892.093 5658.83 898.398 5653.58L878.434 5667.24Z" fill="#E058FF"/>
<path d="M5143.46 579.018C5203.36 1365.05 5331.55 3445.74 5331.55 3445.74L5729.79 363.594L5143.46 579.018Z" fill="#E058FF"/>
<path d="M8006.78 2722.76L9618.65 1106.55L9079.61 900.58L7655.83 2722.76C7808.19 2779.5 7854.42 2673.37 8006.78 2722.76Z" fill="#E058FF"/>
<path d="M8438.65 2702.79L8457.56 2726.96C8438.65 2745.87 8271.57 2923.47 8358.79 2923.47C8550.03 2863.57 8806.41 2663.91 9047.03 2475.81C9033.37 2453.74 9022.87 2429.57 9033.38 2396.99C9096.42 2263.53 9251.93 2178.41 9388.53 2151.09C9443.17 2096.45 9467.34 2028.14 9552.45 2017.63C9639.66 2014.48 9704.81 1957.74 9776.26 1927.26C10000.1 1758.07 10223.9 1588.89 10447.7 1416.55L9969.6 1233.7L8105.55 2738.52C8212.73 2689.13 8313.61 2664.96 8438.65 2702.79Z" fill="#E058FF"/>
<path d="M7391.04 3640.15C7099.98 3604.42 6770.04 3138.89 6841.49 2986.52L8319.91 609.494L7746.19 390.917L7432.02 273.221L6721.7 0L6440.1 100.882L6164.8 201.763L6279.33 791.291C6320.31 780.782 6350.79 763.969 6378.1 731.392C6419.08 676.748 6473.72 618.951 6525.21 679.901C6530.47 758.715 6528.36 835.427 6538.87 914.24C6563.04 1091.83 6402.27 1197.97 6388.61 1375.56C6388.61 1443.87 6347.63 1498.51 6333.97 1580.48C6320.31 1623.56 6333.97 1672.96 6323.47 1716.04C6323.47 1717.09 6322.41 1717.09 6322.41 1717.09C6279.33 1728.65 6227.85 1798.01 6176.36 1768.58C6152.19 1744.41 6138.53 1713.94 6132.23 1686.62L5605.8 3518.25C5684.6 3523.5 5733.99 3581.3 5797.04 3600.22C5786.53 3499.33 5783.38 3379.54 5783.38 3343.81C5827.51 3294.42 5848.52 3231.37 5868.49 3177.77C5931.53 3133.64 5999.83 3188.28 6051.32 3142.04C6061.83 3133.64 6167.95 3136.79 6145.89 3171.47C6144.84 3173.57 6144.84 3175.67 6146.94 3176.72C6191.07 3206.15 6255.17 3243.98 6225.74 3305.98C6162.7 3412.11 6108.06 3540.32 6133.28 3666.42C6143.79 3778.86 6001.93 3767.3 5983.02 3849.27C6095.45 4004.79 6234.15 4146.66 6275.13 4341.07C6353.94 4351.57 6422.24 4363.13 6452.71 4363.13C6760.58 4130.9 7082.11 3888.15 7391.04 3640.15ZM6615.58 3134.69L6637.64 3112.62L6661.81 3090.55L6683.88 3068.49L6708.04 3044.32L6730.11 3022.25L6774.24 2976.01L6787.9 2953.94L6809.97 2929.77L6840.44 2883.54L6854.1 2861.47L6867.76 2837.3L6881.42 2815.23H6884.57L6870.91 2837.3L6857.25 2861.47L6843.59 2883.54L6813.12 2929.77L6790 2953.94L6776.34 2976.01L6732.21 3022.25L6710.15 3044.32L6685.98 3068.49L6663.91 3090.55L6639.74 3112.62L6617.68 3134.69L6593.51 3156.76C6593.51 3155.71 6592.46 3154.66 6592.46 3153.6L6615.58 3134.69Z" fill="#E058FF"/>
<path d="M13486.5 3878.69V3237.67C13139.7 3291.27 12793 3344.86 12445.2 3396.35C12437.8 3376.39 12425.2 3357.47 12425.2 3337.5C12425.2 3329.1 12423.1 3320.69 12417.9 3314.39C12379 3268.15 12312.8 3293.37 12263.4 3260.79C12260.3 3258.69 12256.1 3256.59 12251.9 3255.54C12215.1 3246.08 12177.2 3219.81 12131 3217.71C12126.8 3217.71 12123.7 3218.76 12119.5 3219.81C12078.5 3232.42 11979.7 3294.42 11965 3293.37C11965 3293.37 11965 3293.37 11963.9 3293.37C11944 3291.27 11925.1 3308.08 11926.1 3328.05C11926.1 3339.61 11928.2 3351.17 11930.3 3358.52C11937.7 3382.69 11951.3 3420.52 11977.6 3440.49C11987.1 3449.94 11996.5 3456.25 12006 3461.5C10906.9 3621.23 9805.69 3765.2 8712.9 3869.23C8589.96 3819.84 8625.68 3686.39 8647.75 3596.01C8671.92 3541.37 8295.74 3560.28 8210.63 3491.98C7880.69 3652.76 7599.09 3855.57 7310.13 4038.42C7392.09 4062.59 7492.96 4048.93 7556.01 4087.81C7722.03 4178.18 7719.93 4320.05 7701.01 4434.59C7701.01 4494.49 7622.21 4549.14 7581.23 4614.29C7480.35 4672.09 7335.35 4627.95 7234.48 4655.27C7152.52 4699.41 7068.46 4767.71 6964.43 4747.75C6798.41 4737.24 6612.43 4668.93 6467.42 4737.24C6404.38 4772.97 6347.64 4838.12 6366.55 4903.27C6581.96 4979.98 6694.39 4995.75 6844.65 5121.85C6970.74 5121.85 7155.67 5159.68 7237.63 5080.87C7281.76 5080.87 7319.59 5105.04 7382.63 5125L11369.2 5843.78H13483.3L13478.1 5554.8C13478.1 5554.8 10013.7 5094.53 8922 4960.02C8922 4958.97 8922 4958.97 8922 4957.92C8911.49 4892.76 8913.59 4796.09 8906.24 4760.36C8837.94 4669.98 8759.13 4626.9 8742.32 4514.46C8740.22 4514.46 8739.16 4513.41 8737.06 4513.41V4512.36C8693.98 4502.9 8651.95 4487.14 8614.12 4468.22C8550.03 4435.64 8498.54 4391.51 8470.17 4343.17C8470.17 4304.29 8569.99 4255.95 8509.05 4218.12C8504.85 4214.96 8498.54 4211.81 8491.19 4208.66C8414.48 4213.91 8331.47 4201.3 8264.22 4188.69L8286.29 4176.08C9999.03 4056.29 13484.4 3879.74 13486.5 3878.69Z" fill="#E058FF"/>
<path d="M8143.38 3041.16C8144.44 3041.16 8144.44 3041.16 8145.49 3040.11C8184.36 3028.55 8202.23 2994.93 8184.36 2967.6C8171.76 2947.64 8158.1 2930.82 8146.54 2920.32C8112.91 2890.89 8051.97 2845.71 7987.87 2836.25C7855.48 2797.37 7780.87 2894.04 7651.63 2897.2C7581.23 2904.55 7552.86 2941.33 7512.93 2977.06C7503.47 2985.47 7489.81 2991.77 7474.05 2994.93C7351.11 3019.1 7223.97 3073.74 7164.08 3158.86C7160.92 3163.06 7158.82 3168.32 7157.77 3172.52C7144.11 3238.72 7255.49 3260.79 7285.97 3313.33C7293.32 3325.94 7304.88 3336.45 7321.69 3341.71C7432.02 3378.49 7525.54 3296.52 7641.12 3304.93C7650.58 3305.98 7660.04 3304.93 7668.44 3303.88C7741.99 3290.22 7833.41 3300.72 7915.37 3270.25C7922.72 3267.1 7929.03 3262.89 7935.33 3258.69C7997.33 3210.35 8105.56 3170.42 8100.3 3091.6C8099.25 3071.64 8115.01 3050.62 8143.38 3041.16Z" fill="#E058FF"/>
<path d="M9495.71 3555.03L11474.3 3195.64C11453.3 3178.82 11438.6 3159.91 11444.9 3133.64C11445.9 3128.38 11448 3124.18 11451.2 3119.98C11511.1 3034.86 11638.2 2980.21 11761.1 2956.04C11775.9 2952.89 11789.5 2946.59 11800 2938.18C11840 2902.45 11868.3 2864.62 11938.7 2858.31C12068 2855.16 12142.6 2758.48 12275 2797.37C12339.1 2805.77 12400 2850.96 12433.6 2881.43C12445.2 2891.94 12458.9 2908.76 12471.5 2928.72C12489.3 2957.09 12471.5 2989.67 12432.6 3001.23C12431.5 3001.23 12431.5 3001.23 12430.5 3002.28C12412.6 3007.54 12399 3019.09 12392.7 3031.7L13485.4 2833.09V2586.14L12434.7 2184.72C11771.7 2475.8 10170.3 3159.91 9512.52 3448.89C9442.12 3498.28 9372.77 3517.2 9495.71 3555.03Z" fill="#E058FF"/>
<path d="M4833.49 5576.87L4316.52 5855.34L6277.24 5861.65L5949.4 5679.85C5949.4 5679.85 5715.08 5704.02 5422.97 5685.11L5341.01 5713.48C5292.67 5722.94 5239.09 5734.5 5190.75 5743.95C5150.82 5733.44 5107.74 5739.75 5068.86 5743.95C5033.14 5727.14 4985.85 5714.53 4933.32 5704.02C4937.52 5673.55 4952.23 5645.17 4969.04 5617.85C4922.81 5606.29 4877.62 5592.63 4833.49 5576.87Z" fill="#E058FF"/>
</svg>
