<?xml version="1.0" encoding="utf-8"?>
<!-- Generator: Adobe Illustrator 26.0.1, SVG Export Plug-In . SVG Version: 6.00 Build 0)  -->
<svg version="1.1" id="Layer_1" xmlns="http://www.w3.org/2000/svg" xmlns:xlink="http://www.w3.org/1999/xlink" x="0px" y="0px"
	 viewBox="0 0 470.8 470.6" fill="white" style="enable-background:new 0 0 470.8 470.6;" xml:space="preserve">
<g>
	<path d="M0,458.8c0,0.4,0.1,0.8,0.1,1.1v0.1c0.4,2.1,1.3,4,2.7,5.8c0.3,0.3,0.5,0.7,0.9,1s0.7,0.7,1,0.9s0.5,0.4,0.9,0.7
		c0.1,0,0.1,0.1,0.2,0.1c0.3,0.2,0.7,0.4,1.1,0.7c0.3,0.2,0.8,0.3,1.1,0.5h0.1c0.3,0.1,0.8,0.2,1.1,0.4h0.1c0.3,0.1,0.7,0.2,1,0.2
		c0.1,0,0.2,0,0.2,0.1c0.3,0.1,0.7,0.1,1,0.1c0.1,0,0.2-0.1,0.3-0.1h1.3h0.1l108.8-1.1c7.2-0.1,13-6,13-13.2
		c-0.1-7.2-6-13-13.2-12.9l-76.7,0.9l129.6-129.6c5.1-5.1,5.1-13.5,0-18.6s-13.5-5.1-18.6,0L26.6,425.6l0.9-76.7
		c0.1-7.2-5.7-13.2-13-13.2c-7.2-0.1-13.2,5.7-13.2,13L0,457.5v0.1v0.9L0,458.8L0,458.8z"/>
	<path d="M305.3,178.6c3.4,0,6.7-1.3,9.3-3.8L444.2,45.2l-0.9,76.5c-0.1,7.2,5.7,13.1,13,13.1h0.1c7.2,0,13-5.6,13.1-12.8l1.2-108.7
		v-0.9v-0.4c0-0.4-0.1-0.8-0.1-1.1v-0.1c-0.4-2.1-1.3-4-2.7-5.8c-0.3-0.3-0.5-0.7-0.9-1s-0.7-0.7-1-0.9c-0.2-0.1-0.3-0.2-0.5-0.4
		c-0.2-0.1-0.3-0.2-0.5-0.4c-0.2-0.1-0.4-0.2-0.7-0.4c-0.1-0.1-0.3-0.2-0.4-0.2c-0.2-0.1-0.5-0.2-0.8-0.3c-0.1-0.1-0.2-0.1-0.4-0.2
		c-0.3-0.1-0.8-0.2-1.1-0.3h-0.1c-0.4-0.1-0.9-0.2-1.2-0.3h-0.1c-0.3-0.1-0.8-0.1-1.1-0.1h-0.4h-0.9h-0.1L348.8,1.4
		c-7.2,0.1-13,6.1-13,13.3c0.1,7.2,5.9,13,13.1,13h0.1l76.7-0.9L296,156.3c-5.1,5.1-5.1,13.5,0,18.6
		C298.5,177.4,301.9,178.6,305.3,178.6L305.3,178.6z"/>
	<path d="M0.2,10.7c-0.1,0.3-0.1,0.8-0.1,1.1v0.4v0.9v0.1L1.3,122c0.1,7.2,5.9,12.8,13.1,12.8h0.1c7.2,0,13-5.9,13-13.1l-0.9-76.6
		l129.6,129.6c2.5,2.5,5.9,3.8,9.3,3.8s6.7-1.3,9.3-3.8c5.1-5.1,5.1-13.5,0-18.6L45.2,26.7l76.7,0.9h0.1c7.2,0,13-5.8,13.1-13
		c0.1-7.2-5.7-13.2-13-13.3L13.2,0h-0.1h-0.4C9.8,0.1,7.1,1.1,4.9,2.8L4.8,3c-0.3,0.3-0.7,0.5-1,0.9S3.2,4.5,3,4.8
		c-1.4,1.8-2.3,3.7-2.7,5.8L0.2,10.7L0.2,10.7z"/>
	<path d="M425.6,444.1l-76.7-0.9h-0.1c-7.2,0-13,5.8-13.1,13s5.7,13.1,13,13.2l108.8,1.1h0.1c0.4,0,0.9,0.1,1.3,0h0.3
		c0.3,0,0.7,0,1-0.1h0.2c0.3-0.1,0.7-0.1,1-0.2h0.1c0.3-0.1,0.8-0.2,1.1-0.4h0.1c0.3-0.1,0.8-0.3,1.1-0.5s0.8-0.4,1.1-0.7
		c0.1,0,0.1-0.1,0.2-0.1c0.3-0.2,0.5-0.4,0.9-0.7c0.3-0.3,0.7-0.5,1-0.9s0.7-0.7,0.9-1c1.4-1.8,2.3-3.7,2.7-5.8V460
		c0.1-0.3,0.1-0.8,0.1-1.1v-0.4v-0.9v-0.1l-1.2-108.8c-0.1-7.2-6-13-13.2-13c-7.2,0.1-13,6-13,13.2l0.9,76.7L314.6,296
		c-5.1-5.1-13.5-5.1-18.6,0s-5.1,13.5,0,18.5L425.6,444.1z"/>
</g>
</svg>
