<?xml version="1.0" encoding="utf-8"?>
<!-- Generator: Adobe Illustrator 26.0.1, SVG Export Plug-In . SVG Version: 6.00 Build 0)  -->
<svg version="1.1" id="Layer_1" xmlns="http://www.w3.org/2000/svg" xmlns:xlink="http://www.w3.org/1999/xlink" x="0px" y="0px"
	 viewBox="0 0 470.8 470.6" style="enable-background:new 0 0 470.8 470.6;" xml:space="preserve">
<style type="text/css">
	.st0{fill:#FFFFFF;}
</style>
<g>
	<path class="st0" d="M178.6,303.7c0-0.4-0.1-0.8-0.1-1.1v-0.1c-0.4-2.1-1.3-4-2.7-5.8c-0.3-0.3-0.5-0.7-0.9-1
		c-0.3-0.3-0.7-0.7-1-0.9c-0.3-0.2-0.5-0.4-0.9-0.7c-0.1,0-0.1-0.1-0.2-0.1c-0.3-0.2-0.7-0.4-1.1-0.7c-0.3-0.2-0.8-0.3-1.1-0.5h-0.1
		c-0.3-0.1-0.8-0.2-1.1-0.4h-0.1c-0.3-0.1-0.7-0.2-1-0.2c-0.1,0-0.2,0-0.2-0.1c-0.3-0.1-0.7-0.1-1-0.1c-0.1,0-0.2,0.1-0.3,0.1h-1.3
		h-0.1l-108.8,1.1c-7.2,0.1-13,6-13,13.2c0.1,7.2,6,13,13.2,12.9l76.7-0.9L3.9,448.1c-5.1,5.1-5.1,13.5,0,18.6s13.5,5.1,18.6,0
		L152.1,337l-0.9,76.7c-0.1,7.2,5.7,13.2,13,13.2c7.2,0.1,13.2-5.7,13.2-13l1.2-108.8V305v-1V303.7L178.6,303.7z"/>
	<path class="st0" d="M457.6,0.2c-3.4,0-6.7,1.3-9.3,3.8L318.7,133.6l0.9-76.5c0.1-7.2-5.7-13.1-13-13.1h-0.1
		c-7.2,0-13,5.6-13.1,12.8l-1.2,108.7v0.9v0.4c0,0.4,0.1,0.8,0.1,1.1v0.1c0.4,2.1,1.3,4,2.7,5.8c0.3,0.3,0.5,0.7,0.9,1
		c0.3,0.3,0.7,0.7,1,0.9c0.2,0.1,0.3,0.2,0.5,0.4c0.2,0.1,0.3,0.2,0.5,0.4c0.2,0.1,0.4,0.2,0.7,0.4c0.1,0.1,0.3,0.2,0.4,0.2
		c0.2,0.1,0.5,0.2,0.8,0.3c0.1,0.1,0.2,0.1,0.4,0.2c0.3,0.1,0.8,0.2,1.1,0.3h0.1c0.4,0.1,0.9,0.2,1.2,0.3h0.1
		c0.3,0.1,0.8,0.1,1.1,0.1h0.4h0.9h0.1l108.8-1.2c7.2-0.1,13-6.1,13-13.3c-0.1-7.2-5.9-13-13.1-13h-0.1l-76.7,0.9L466.9,22.5
		c5.1-5.1,5.1-13.5,0-18.6C464.4,1.4,461,0.2,457.6,0.2L457.6,0.2z"/>
	<path class="st0" d="M178.6,167.8c0.1-0.3,0.1-0.8,0.1-1.1v-0.4v-0.9v-0.1l-1.2-108.7c-0.1-7.2-5.9-12.8-13.1-12.8h-0.1
		c-7.2,0-13,5.9-13,13.1l0.9,76.6L22.6,3.8C20,1.3,16.7,0,13.3,0S6.6,1.3,4,3.8C-1.2,9-1.2,17.3,4,22.4l129.7,129.4L57,150.9h-0.1
		c-7.2,0-13,5.8-13.1,13s5.7,13.2,13,13.3l108.8,1.2h0.1h0.4c2.8-0.1,5.6-1.1,7.8-2.8l0.1-0.1c0.3-0.3,0.7-0.5,1-0.9
		c0.3-0.3,0.7-0.7,0.9-1C177.3,171.8,178.2,169.9,178.6,167.8L178.6,167.8L178.6,167.8z"/>
	<path class="st0" d="M337.3,318.6l76.7,0.9h0.1c7.2,0,13-5.8,13.1-13s-5.7-13.1-13-13.2l-108.8-1.1h-0.1c-0.4,0-0.9-0.1-1.3,0h-0.3
		c-0.3,0-0.7,0-1,0.1h-0.2c-0.3,0.1-0.7,0.1-1,0.2h-0.1c-0.3,0.1-0.8,0.2-1.1,0.4h-0.1c-0.3,0.1-0.8,0.3-1.1,0.5s-0.8,0.4-1.1,0.7
		c-0.1,0-0.1,0.1-0.2,0.1c-0.3,0.2-0.5,0.4-0.9,0.7c-0.3,0.3-0.7,0.5-1,0.9s-0.7,0.7-0.9,1c-1.4,1.8-2.3,3.7-2.7,5.8v0.1
		c-0.1,0.3-0.1,0.8-0.1,1.1v0.4v0.9v0.1l1.2,108.8c0.1,7.2,6,13,13.2,13c7.2-0.1,13-6,13-13.2l-0.9-76.7l129.6,129.6
		c5.1,5.1,13.5,5.1,18.6,0s5.1-13.5,0-18.5L337.3,318.6z"/>
</g>
</svg>
